<svg id="Capa_1" enable-background="new 0 0 512 512" height="512" viewBox="0 0 512 512" width="512" xmlns="http://www.w3.org/2000/svg"><g><path d="m256 369.044c-27.737-29.604-44.945-69.3-45-112.839-.057-42.38 16.126-82.079 45-112.828 44.376-47.25 104.991-61.666 162.089-46.987l56.147 14.429-42.1-39.858c-47.651-45.117-110.848-70.961-176.136-70.961-140.61 0-256 115.39-256 256s115.39 256 256 256c65.288 0 128.485-25.844 176.137-70.961l42.1-39.858-56.147 14.429c-63.132 16.232-123.42-5.292-162.09-46.566z" fill="#ffe666"/><path d="m418.089 96.391 56.147 14.429-42.1-39.858c-47.651-45.118-110.848-70.962-176.136-70.962v143.377c44.375-47.251 104.992-61.667 162.089-46.986z" fill="#fc6"/><path d="m474.236 401.181-56.147 14.429c-63.131 16.232-123.419-5.292-162.089-46.566v142.956c65.288 0 128.485-25.844 176.137-70.961z" fill="#fc6"/><g><path d="m362 151h30v30h-30z" fill="#f2e9e0"/></g><g><path d="m392 121h30v30h-30z" fill="#f2e9e0"/></g><g><path d="m392 181h30v30h-30z" fill="#f2e9e0"/></g><g><path d="m422 151h30v30h-30z" fill="#f2e9e0"/></g><g><path d="m422 301h30v30h-30z" fill="#f2e9e0"/></g><g><path d="m452 271h30v30h-30z" fill="#f2e9e0"/></g><g><path d="m452 331h30v30h-30z" fill="#f2e9e0"/></g><g><path d="m482 301h30v30h-30z" fill="#f2e9e0"/></g><path d="m329.803 242.099c-5.903-18.12-24.32-32.52-44.125-31.099-7.778-10.362-18.113-18.135-29.678-23.284-9.344-4.162-19.446-6.716-30-6.716-41.353 0-75 33.647-75 75v.322c-18.721 14.077-30 36.152-30 59.678v15h135 136v-15c0-36.987-26.924-67.808-62.197-73.901z" fill="#f9f4ec"/><path d="m392 316c0-36.987-26.924-67.808-62.197-73.901-5.903-18.12-24.32-32.52-44.125-31.099-7.778-10.362-18.113-18.135-29.678-23.284v143.284h136z" fill="#f2e9e0"/></g></svg>