<?xml version="1.0" encoding="iso-8859-1"?>
<!-- Generator: Adobe Illustrator 19.0.0, SVG Export Plug-In . SVG Version: 6.00 Build 0)  -->
<svg version="1.1" id="Capa_1" xmlns="http://www.w3.org/2000/svg" xmlns:xlink="http://www.w3.org/1999/xlink" x="0px" y="0px"
	 viewBox="0 0 480 480" style="enable-background:new 0 0 480 480;" xml:space="preserve">
<path style="fill:#C7CAC7;" d="M432,232h-8c0-17.673-14.327-32-32-32s-32,14.327-32,32h-32c-8.837,0-16,7.163-16,16
	c0,8.837,7.163,16,16,16h104c8.837,0,16-7.163,16-16C448,239.164,440.837,232,432,232z"/>
<path style="fill:#FFF89B;" d="M306.584,167.88c-35.311,0.038-63.967-28.556-64.005-63.867c-0.02-18.37,7.862-35.86,21.637-48.013
	c-44.142,1.278-78.89,38.099-77.612,82.241s38.099,78.89,82.241,77.612c35.659-1.033,66.32-25.562,75.155-60.125
	C333.125,163.631,320.027,167.885,306.584,167.88L306.584,167.88z"/>
<path style="fill:#C7CAC7;" d="M456,104h-32c8.837,0,16-7.163,16-16s-7.163-16-16-16h-96c-8.837,0-16,7.163-16,16s7.163,16,16,16h32
	c-8.837,0-16,7.163-16,16s7.163,16,16,16h96c8.837,0,16-7.163,16-16S464.837,104,456,104z"/>
<g>
	<g>
		<path id="SVGCleanerId_0" style="fill:#C9EBF4;" d="M104,320h16v48h-16V320z"/>
	</g>
	<g>
		<path id="SVGCleanerId_1" style="fill:#C9EBF4;" d="M56,320h16v48H56V320z"/>
	</g>
	<g>
		<path id="SVGCleanerId_2" style="fill:#C9EBF4;" d="M152,320h16v48h-16V320z"/>
	</g>
	<g>
		<path id="SVGCleanerId_3" style="fill:#C9EBF4;" d="M200,320h16v48h-16V320z"/>
	</g>
	<g>
		<path id="SVGCleanerId_4" style="fill:#C9EBF4;" d="M248,320h16v48h-16V320z"/>
	</g>
	<g>
		<path id="SVGCleanerId_5" style="fill:#C9EBF4;" d="M128,384h16v48h-16V384z"/>
	</g>
	<g>
		<path id="SVGCleanerId_6" style="fill:#C9EBF4;" d="M80,384h16v48H80V384z"/>
	</g>
	<g>
		<path id="SVGCleanerId_7" style="fill:#C9EBF4;" d="M176,384h16v48h-16V384z"/>
	</g>
	<g>
		<path id="SVGCleanerId_8" style="fill:#C9EBF4;" d="M224,384h16v48h-16V384z"/>
	</g>
	<g>
		<path id="SVGCleanerId_9" style="fill:#C9EBF4;" d="M272,384h16v48h-16V384z"/>
	</g>
	<g>
		<path id="SVGCleanerId_10" style="fill:#C9EBF4;" d="M328,288h16v16h-16V288z"/>
	</g>
	<g>
		<path id="SVGCleanerId_11" style="fill:#C9EBF4;" d="M360,288h16v16h-16V288z"/>
	</g>
	<g>
		<path id="SVGCleanerId_12" style="fill:#C9EBF4;" d="M392,288h16v16h-16V288z"/>
	</g>
	<g>
		<path id="SVGCleanerId_13" style="fill:#C9EBF4;" d="M424,288h16v16h-16V288z"/>
	</g>
	<g>
		<path id="SVGCleanerId_14" style="fill:#C9EBF4;" d="M328,320h16v16h-16V320z"/>
	</g>
	<g>
		<path id="SVGCleanerId_15" style="fill:#C9EBF4;" d="M360,320h16v16h-16V320z"/>
	</g>
	<g>
		<path id="SVGCleanerId_16" style="fill:#C9EBF4;" d="M392,320h16v16h-16V320z"/>
	</g>
	<g>
		<path id="SVGCleanerId_17" style="fill:#C9EBF4;" d="M424,320h16v16h-16V320z"/>
	</g>
</g>
<path style="fill:#7D8F9F;" d="M32,248h8c-0.026-26.483,21.421-47.973,47.904-48c7.647-0.008,15.184,1.814,21.984,5.312
	c14.647-32.12,52.56-46.284,84.68-31.637c28.276,12.895,43.18,44.258,35.32,74.325H256c13.255,0,24,10.745,24,24
	c0,13.255-10.745,24-24,24H32c-13.255,0-24-10.745-24-24C8,258.745,18.745,248,32,248z"/>
<path d="M106.256,195.072C100.387,193.028,94.215,191.989,88,192c-27.826,0.035-51.419,20.465-55.432,48H32
	c-17.673,0-32,14.327-32,32s14.327,32,32,32h224c17.673,0,32-14.327,32-32s-14.327-32-32-32h-16.48c0.318-2.655,0.478-5.326,0.48-8
	c-0.02-4.294-0.424-8.578-1.208-12.8c45.64,15.593,95.279-8.764,110.872-54.404c0.795-2.328,1.492-4.689,2.088-7.076
	c1.1-4.279-1.476-8.64-5.755-9.74c-2.306-0.593-4.756-0.128-6.685,1.268c-24.995,18.147-59.969,12.596-78.116-12.4
	c-16.961-23.361-13.354-55.792,8.324-74.856c2.522-2.232,3.376-5.805,2.136-8.936c-1.275-3.095-4.309-5.099-7.656-5.056
	c-48.3,1.148-86.524,41.234-85.376,89.535c0.193,8.126,1.518,16.185,3.936,23.945c-29.989-6.176-60.601,7.306-76.288,33.6
	L106.256,195.072z M256,256c8.837,0,16,7.163,16,16c0,8.837-7.163,16-16,16H32c-8.837,0-16-7.163-16-16c0-8.837,7.163-16,16-16h16
	v-8c0.026-22.08,17.92-39.974,40-40c6.342-0.007,12.593,1.513,18.224,4.432l7.432,3.816l3.496-7.592
	c12.782-28.12,45.938-40.554,74.058-27.772c24.801,11.273,37.871,38.775,30.95,65.124L219.584,256H256z M194.584,135.88
	c-0.142-31.344,20.137-59.13,50.032-68.552c-20.172,34.268-8.745,78.401,25.522,98.573c17.651,10.391,38.892,12.772,58.406,6.547
	c-19.707,33.613-62.651,45.336-96.704,26.4c-6.564-12.595-16.685-22.982-29.104-29.872
	C197.407,158.757,194.611,147.406,194.584,135.88L194.584,135.88z"/>
<path d="M432,224h-0.8c-4.396-21.65-25.51-35.636-47.16-31.24c-15.741,3.196-28.044,15.499-31.24,31.24H328
	c-13.255,0-24,10.745-24,24c0,13.255,10.745,24,24,24h104c13.255,0,24-10.745,24-24C456,234.745,445.255,224,432,224L432,224z
	 M432,256H328c-4.418,0-8-3.582-8-8s3.582-8,8-8h32c4.418,0,8-3.582,8-8c0-13.255,10.745-24,24-24s24,10.745,24,24
	c0,4.418,3.582,8,8,8h8c4.418,0,8,3.582,8,8S436.418,256,432,256z"/>
<path d="M456,96h-9.368c4.418-12.497-2.131-26.209-14.627-30.627C429.434,64.464,426.727,64,424,64h-96c-13.255,0-24,10.745-24,24
	s10.745,24,24,24h9.368c-4.418,12.497,2.131,26.209,14.627,30.627c2.571,0.909,5.278,1.373,8.005,1.373h96c13.255,0,24-10.745,24-24
	S469.255,96,456,96z M456,128h-96c-4.418,0-8-3.582-8-8s3.582-8,8-8s8-3.582,8-8s-3.582-8-8-8h-32c-4.418,0-8-3.582-8-8s3.582-8,8-8
	h96c4.418,0,8,3.582,8,8s-3.582,8-8,8s-8,3.582-8,8s3.582,8,8,8h32c4.418,0,8,3.582,8,8S460.418,128,456,128z"/>
<path id="SVGCleanerId_0_1_" d="M104,320h16v48h-16V320z"/>
<path id="SVGCleanerId_1_1_" d="M56,320h16v48H56V320z"/>
<path id="SVGCleanerId_2_1_" d="M152,320h16v48h-16V320z"/>
<path id="SVGCleanerId_3_1_" d="M200,320h16v48h-16V320z"/>
<path id="SVGCleanerId_4_1_" d="M248,320h16v48h-16V320z"/>
<path id="SVGCleanerId_5_1_" d="M128,384h16v48h-16V384z"/>
<path id="SVGCleanerId_6_1_" d="M80,384h16v48H80V384z"/>
<path id="SVGCleanerId_7_1_" d="M176,384h16v48h-16V384z"/>
<path id="SVGCleanerId_8_1_" d="M224,384h16v48h-16V384z"/>
<path id="SVGCleanerId_9_1_" d="M272,384h16v48h-16V384z"/>
<path id="SVGCleanerId_10_1_" d="M328,288h16v16h-16V288z"/>
<path id="SVGCleanerId_11_1_" d="M360,288h16v16h-16V288z"/>
<path id="SVGCleanerId_12_1_" d="M392,288h16v16h-16V288z"/>
<path id="SVGCleanerId_13_1_" d="M424,288h16v16h-16V288z"/>
<path id="SVGCleanerId_14_1_" d="M328,320h16v16h-16V320z"/>
<path id="SVGCleanerId_15_1_" d="M360,320h16v16h-16V320z"/>
<path id="SVGCleanerId_16_1_" d="M392,320h16v16h-16V320z"/>
<path id="SVGCleanerId_17_1_" d="M424,320h16v16h-16V320z"/>
<g>
</g>
<g>
</g>
<g>
</g>
<g>
</g>
<g>
</g>
<g>
</g>
<g>
</g>
<g>
</g>
<g>
</g>
<g>
</g>
<g>
</g>
<g>
</g>
<g>
</g>
<g>
</g>
<g>
</g>
</svg>
