<svg id="Capa_1" enable-background="new 0 0 497 497" height="512" viewBox="0 0 497 497" width="512" xmlns="http://www.w3.org/2000/svg"><g><path d="m303.972 218.952c-6.199 78.463-72.063 140.163-152.303 139.877-83.963-.299-142-65.872-141.999-149.712.001-65.694 32.064-123.939 90.502-145.17 16.24-5.9 33.769-9.118 52.052-9.118 18.599 0 36.424 3.328 52.901 9.427 5.382 1.992 5.106 9.63-.382 11.307-35.555 10.865-61.272 44.222-60.514 83.454.787 40.74 30.554 74.627 69.226 82.221 5.525 1.085 14.749 7.629 20.579 7.584 25.07-.194 44.059-17.138 59.596-34.454 3.773-4.205 10.772-1.174 10.353 4.457-.004.045-.007.087-.011.127z" fill="#f7e365"/><path d="m303.98 218.831c.42-5.63-6.58-8.67-10.35-4.46-15.54 17.32-38.04 28.26-63.11 28.46-5.46.04-10.81-.44-16-1.4-5.34 7.3-10.02 15.18-13.9 23.55-22.5 2.813-42.665 13.238-57.871 28.603-3.329 3.364-8.601 3.886-12.589 1.337-42.226-26.998-70.16-74.244-70.16-128.09 0-39.69 15.23-75.83 40.17-102.89-58.44 21.24-100.17 77.2-100.17 142.89 0 71.002 48.564 130.535 114.43 147.288v.002c53.23 13.998 112.926-3.551 149.86-44.42-.005.002-.01.004-.016.005 22.4-24.31 36.974-55.943 39.706-90.875z" fill="#ffc736"/><g><path d="m436.223 438.224c11.133-.021 21.153-.719 30.511-6.766 4.705-3.041 11.466-5.308 15.154-9.5 9.405-10.688 15.112-24.725 15.112-40.102 0-30-21.722-54.901-50.254-59.783-.939-.161-1.632-.948-1.658-1.9-.728-26.53-10.113-50.891-25.425-70.344-21.734-27.612-56.824-42.998-94.63-42.998-51.335 0-91.201 32.942-107.753 78.682-.288.797-1.902 1.307-1.907 1.307-43.596 0-76.34 33.649-76.34 77.362 0 41.119 30.469 69.157 70.468 73.021 1.646.159 226.722 1.021 226.722 1.021z" fill="#8a94db"/></g><g><path d="m215.28 422.131c-.264-.025-.527-.052-.789-.08-51.92-5.55-69.843-72.654-27.42-103.096 12.925-9.275 28.759-14.733 45.869-14.733h.01c.85 0 1.61-.51 1.89-1.31 16.56-45.74 60.27-78.42 111.61-78.42 27.62 0 53.04 9.47 73.21 25.34-21.73-27.61-55.4-45.34-93.21-45.34-51.34 0-95.05 32.68-111.61 78.42-.28.8-1.04 1.31-1.89 1.31h-.01c-26.911 0-50.661 13.511-64.911 34.125.004-.012.007-.024.011-.035-24.85 34.443-15.36 86.702 20.04 110.18-.002-.004-.005-.007-.007-.011 10.765 7.467 23.472 12.322 37.207 13.651 1.64.16 232.46-.23 232.46-.23 11.13-.02 22.14-2.99 31.5-9.03 4.7-3.04 8.96-6.72 12.65-10.91-86.52.099-265.37.289-266.61.169z" fill="#717ed4"/></g><path d="m302.126 90.065 12.373 20.653c.168.281.403.517.684.686l20.626 12.418c1.293.778 1.291 2.654-.004 3.429l-20.653 12.373c-.281.168-.517.403-.686.684l-12.418 20.626c-.778 1.293-2.654 1.291-3.429-.004l-12.373-20.653c-.168-.281-.403-.517-.684-.686l-20.626-12.418c-1.293-.778-1.291-2.654.004-3.429l20.653-12.373c.281-.168.517-.403.686-.684l12.418-20.626c.778-1.292 2.653-1.29 3.429.004z" fill="#f7e365"/><path d="m308.85 149.641-6.8 11.29c-.78 1.3-2.65 1.29-3.43 0l-12.37-20.65c-.17-.28-.41-.52-.69-.69l-20.62-12.42c-1.3-.77-1.29-2.65 0-3.43l10.99-6.58c0 .01.01.01.01.01l20.62 12.42c.28.17.52.41.69.69z" fill="#ffc736"/><path d="m433.137 130.262 14.209 23.717c.168.281.403.517.684.686l23.686 14.261c1.293.778 1.291 2.654-.004 3.429l-23.717 14.209c-.281.168-.517.403-.686.684l-14.261 23.686c-.778 1.293-2.654 1.291-3.429-.004l-14.209-23.717c-.168-.281-.403-.517-.684-.686l-23.686-14.261c-1.293-.778-1.291-2.654.004-3.429l23.717-14.209c.281-.168.517-.403.686-.684l14.261-23.686c.778-1.292 2.653-1.29 3.429.004z" fill="#f7e365"/><path d="m441.75 196.481-8.7 14.45c-.78 1.3-2.65 1.29-3.43 0l-14.21-23.72c-.17-.28-.4-.51-.68-.68l-23.69-14.26c-1.29-.78-1.29-2.66 0-3.43l14.48-8.68 22.21 13.37c.28.17.51.4.68.68z" fill="#ffc736"/></g></svg>