<svg id="Capa_1" enable-background="new 0 0 512 512" height="512" viewBox="0 0 512 512" width="512" xmlns="http://www.w3.org/2000/svg"><g id="XMLID_12_"><path id="XMLID_847_" d="m502 256c0-35.346-28.654-64-64-64h-54c35.346 0 64-28.654 64-64 0-35.346-28.654-64-64-64h-310c-35.346 0-64 28.654-64 64 0 35.346 28.654 64 64 64h54c-35.346 0-64 28.654-64 64 0 35.345 28.651 63.997 63.995 64h-53.995c-35.346 0-64 28.654-64 64 0 35.346 28.654 64 64 64h364c35.346 0 64-28.654 64-64 0-35.345-28.652-63.999-63.998-64 35.346-.001 63.998-28.655 63.998-64z" fill="#6d92ac"/><path id="XMLID_942_" d="m212.515 152.329 19.504-35.662 19.504 35.662 35.663 19.504-35.663 19.505-19.504 35.662-19.504-35.662-35.663-19.505z" fill="#ffcd69"/><g id="XMLID_504_"><path id="XMLID_505_" d="m475.118 320c22.036-12.831 36.882-36.716 36.882-64 0-40.804-33.196-74-74-74h-3.454c14.427-13.512 23.454-32.722 23.454-54 0-40.804-33.196-74-74-74h-91.743c-5.522 0-10 4.477-10 10s4.478 10 10 10h91.743c29.775 0 54 24.224 54 54s-24.225 54-54 54c-5.522 0-10 4.477-10 10s4.478 10 10 10h54c29.775 0 54 24.224 54 54 0 29.774-24.224 53.999-53.998 54-5.523 0-10 4.477-10 10s4.477 10 10 10c29.774.001 53.998 24.226 53.998 54 0 29.776-24.225 54-54 54h-364c-29.775 0-54-24.224-54-54s24.225-54 54-54h53.995c5.522 0 10-4.477 10-10s-4.477-10-9.999-10c-29.773-.002-53.996-24.227-53.996-54 0-29.776 24.225-54 54-54 5.522 0 10-4.477 10-10s-4.478-10-10-10h-54c-29.775 0-54-24.224-54-54s24.225-54 54-54h128.257c5.522 0 10-4.477 10-10s-4.478-10-10-10h-128.257c-40.804 0-74 33.196-74 74s33.196 74 74 74h3.454c-14.427 13.512-23.454 32.722-23.454 54 0 21.277 9.029 40.488 23.454 54h-3.454c-40.804 0-74 33.196-74 74s33.196 74 74 74h364c40.804 0 74-33.196 74-74 0-27.284-14.846-51.169-36.882-64z"/><path id="XMLID_508_" d="m172.054 163.06c-3.207 1.754-5.201 5.118-5.201 8.773s1.994 7.02 5.201 8.773l33.093 18.099 18.099 33.092c1.754 3.207 5.118 5.202 8.773 5.202s7.02-1.995 8.773-5.202l18.1-33.092 33.093-18.099c3.207-1.754 5.201-5.118 5.201-8.773s-1.994-7.02-5.201-8.773l-33.093-18.099-18.1-33.093c-1.754-3.207-5.118-5.202-8.773-5.202s-7.02 1.995-8.773 5.202l-18.099 33.093zm49.234-5.933 10.73-19.621 10.731 19.621c.918 1.678 2.297 3.058 3.975 3.975l19.621 10.731-19.621 10.731c-1.678.917-3.057 2.297-3.975 3.975l-10.731 19.62-10.73-19.62c-.918-1.678-2.297-3.058-3.975-3.975l-19.621-10.731 19.621-10.731c1.678-.917 3.058-2.297 3.975-3.975z"/><path id="XMLID_509_" d="m332.091 282.323c-5.522 0-10 4.477-10 10s4.478 10 10 10c7.709 0 13.98 6.272 13.98 13.981 0 5.523 4.478 10 10 10s10-4.477 10-10c0-7.709 6.272-13.981 13.981-13.981 5.522 0 10-4.477 10-10s-4.478-10-10-10c-7.709 0-13.981-6.272-13.981-13.981 0-5.523-4.478-10-10-10s-10 4.477-10 10c0 7.709-6.271 13.981-13.98 13.981z"/><path id="XMLID_510_" d="m242.019 336.038c0-5.523-4.478-10-10-10s-10 4.477-10 10c0 7.709-6.271 13.981-13.98 13.981-5.522 0-10 4.477-10 10s4.478 10 10 10c7.709 0 13.98 6.272 13.98 13.981 0 5.523 4.478 10 10 10s10-4.477 10-10c0-7.709 6.272-13.981 13.981-13.981 5.522 0 10-4.477 10-10s-4.478-10-10-10c-7.709 0-13.981-6.272-13.981-13.981z"/><path id="XMLID_511_" d="m360.069 135.07c1.86-1.86 2.931-4.44 2.931-7.07s-1.07-5.21-2.931-7.07c-1.859-1.86-4.439-2.93-7.069-2.93s-5.21 1.07-7.07 2.93-2.93 4.44-2.93 7.07c0 2.64 1.069 5.21 2.93 7.07s4.44 2.93 7.07 2.93 5.21-1.07 7.069-2.93z"/><path id="XMLID_515_" d="m86.59 120.93c-1.86 1.86-2.92 4.44-2.92 7.07s1.06 5.21 2.92 7.07c1.87 1.86 4.44 2.93 7.08 2.93 2.63 0 5.21-1.07 7.07-2.93 1.859-1.86 2.93-4.44 2.93-7.07s-1.07-5.21-2.93-7.07-4.44-2.93-7.07-2.93c-2.64 0-5.21 1.07-7.08 2.93z"/><path id="XMLID_535_" d="m161.06 258.34c-2.63 0-5.21 1.07-7.069 2.93-1.86 1.86-2.931 4.44-2.931 7.07 0 2.64 1.07 5.21 2.931 7.07 1.859 1.86 4.439 2.93 7.069 2.93s5.21-1.07 7.07-2.93c1.87-1.86 2.93-4.44 2.93-7.07s-1.06-5.21-2.93-7.07c-1.86-1.86-4.43-2.93-7.07-2.93z"/><path id="XMLID_537_" d="m388.43 399.57c1.86 1.86 4.44 2.93 7.07 2.93s5.21-1.07 7.069-2.93c1.86-1.86 2.931-4.44 2.931-7.07s-1.07-5.21-2.931-7.07c-1.859-1.86-4.439-2.93-7.069-2.93s-5.21 1.07-7.07 2.93-2.93 4.44-2.93 7.07 1.069 5.21 2.93 7.07z"/><path id="XMLID_540_" d="m247.26 74c2.63 0 5.21-1.07 7.07-2.93 1.859-1.86 2.93-4.44 2.93-7.07s-1.07-5.21-2.93-7.07-4.44-2.93-7.07-2.93c-2.64 0-5.21 1.07-7.07 2.93-1.87 1.86-2.93 4.44-2.93 7.07s1.06 5.21 2.93 7.07c1.86 1.86 4.43 2.93 7.07 2.93z"/></g></g></svg>